<mxfile host="app.diagrams.net" modified="2021-12-16T11:01:37.583Z" agent="5.0 (Macintosh; Intel Mac OS X 10_15_7) AppleWebKit/537.36 (KHTML, like Gecko) Chrome/96.0.4664.110 Safari/537.36" etag="Axzk-cbG35qZwbjDojnx" version="15.9.6" type="github">
  <diagram id="Tp77MxFoLtkwwNekDPKx" name="Page-1">
    <mxGraphModel dx="1554" dy="784" grid="1" gridSize="10" guides="1" tooltips="1" connect="1" arrows="1" fold="1" page="1" pageScale="1" pageWidth="827" pageHeight="1169" math="0" shadow="0">
      <root>
        <mxCell id="0" />
        <mxCell id="1" parent="0" />
        <mxCell id="FBJIPTHBruTFaR7SxBJX-39" style="edgeStyle=orthogonalEdgeStyle;rounded=0;orthogonalLoop=1;jettySize=auto;html=1;" parent="1" source="FBJIPTHBruTFaR7SxBJX-10" target="FBJIPTHBruTFaR7SxBJX-1" edge="1">
          <mxGeometry relative="1" as="geometry" />
        </mxCell>
        <mxCell id="FBJIPTHBruTFaR7SxBJX-10" value="" style="rounded=0;whiteSpace=wrap;html=1;" parent="1" vertex="1">
          <mxGeometry x="120" y="20" width="941" height="100" as="geometry" />
        </mxCell>
        <mxCell id="FBJIPTHBruTFaR7SxBJX-12" value="User" style="text;html=1;strokeColor=none;fillColor=none;align=center;verticalAlign=middle;whiteSpace=wrap;rounded=0;" parent="1" vertex="1">
          <mxGeometry x="120" y="20" width="60" height="30" as="geometry" />
        </mxCell>
        <mxCell id="FBJIPTHBruTFaR7SxBJX-14" value="Actor" style="shape=umlActor;verticalLabelPosition=bottom;verticalAlign=top;html=1;outlineConnect=0;" parent="1" vertex="1">
          <mxGeometry x="200" y="30" width="30" height="60" as="geometry" />
        </mxCell>
        <mxCell id="FBJIPTHBruTFaR7SxBJX-15" value="Actor" style="shape=umlActor;verticalLabelPosition=bottom;verticalAlign=top;html=1;outlineConnect=0;" parent="1" vertex="1">
          <mxGeometry x="870" y="30" width="30" height="60" as="geometry" />
        </mxCell>
        <mxCell id="FBJIPTHBruTFaR7SxBJX-16" value="Actor" style="shape=umlActor;verticalLabelPosition=bottom;verticalAlign=top;html=1;outlineConnect=0;" parent="1" vertex="1">
          <mxGeometry x="350" y="30" width="30" height="60" as="geometry" />
        </mxCell>
        <mxCell id="FBJIPTHBruTFaR7SxBJX-17" value="Actor" style="shape=umlActor;verticalLabelPosition=bottom;verticalAlign=top;html=1;outlineConnect=0;" parent="1" vertex="1">
          <mxGeometry x="550" y="30" width="30" height="60" as="geometry" />
        </mxCell>
        <mxCell id="FBJIPTHBruTFaR7SxBJX-26" value="" style="rounded=0;whiteSpace=wrap;html=1;" parent="1" vertex="1">
          <mxGeometry x="750" y="210" width="349" height="350" as="geometry" />
        </mxCell>
        <mxCell id="FBJIPTHBruTFaR7SxBJX-5" value="" style="rounded=0;whiteSpace=wrap;html=1;" parent="1" vertex="1">
          <mxGeometry x="110" y="610" width="941" height="140" as="geometry" />
        </mxCell>
        <mxCell id="FBJIPTHBruTFaR7SxBJX-8" value="RabbitMQ" style="text;html=1;strokeColor=none;fillColor=none;align=center;verticalAlign=middle;whiteSpace=wrap;rounded=0;" parent="1" vertex="1">
          <mxGeometry x="110" y="610" width="60" height="30" as="geometry" />
        </mxCell>
        <mxCell id="FBJIPTHBruTFaR7SxBJX-1" value="" style="rounded=0;whiteSpace=wrap;html=1;" parent="1" vertex="1">
          <mxGeometry x="110" y="210" width="570" height="350" as="geometry" />
        </mxCell>
        <mxCell id="FBJIPTHBruTFaR7SxBJX-2" value="Java" style="text;html=1;strokeColor=none;fillColor=none;align=center;verticalAlign=middle;whiteSpace=wrap;rounded=0;" parent="1" vertex="1">
          <mxGeometry x="100" y="210" width="60" height="30" as="geometry" />
        </mxCell>
        <mxCell id="FBJIPTHBruTFaR7SxBJX-42" style="edgeStyle=orthogonalEdgeStyle;rounded=0;orthogonalLoop=1;jettySize=auto;html=1;" parent="1" source="FBJIPTHBruTFaR7SxBJX-35" target="FBJIPTHBruTFaR7SxBJX-37" edge="1">
          <mxGeometry relative="1" as="geometry" />
        </mxCell>
        <mxCell id="FBJIPTHBruTFaR7SxBJX-35" value="" style="sketch=0;aspect=fixed;html=1;points=[];align=center;image;fontSize=12;image=img/lib/mscae/Cache_Redis_Product.svg;" parent="1" vertex="1">
          <mxGeometry x="910" y="364" width="50" height="42" as="geometry" />
        </mxCell>
        <mxCell id="FBJIPTHBruTFaR7SxBJX-40" style="edgeStyle=orthogonalEdgeStyle;rounded=0;orthogonalLoop=1;jettySize=auto;html=1;" parent="1" source="FBJIPTHBruTFaR7SxBJX-36" target="FBJIPTHBruTFaR7SxBJX-35" edge="1">
          <mxGeometry relative="1" as="geometry" />
        </mxCell>
        <mxCell id="FBJIPTHBruTFaR7SxBJX-36" value="创建链接" style="rounded=0;whiteSpace=wrap;html=1;" parent="1" vertex="1">
          <mxGeometry x="190" y="260" width="120" height="60" as="geometry" />
        </mxCell>
        <mxCell id="FBJIPTHBruTFaR7SxBJX-37" value="发送消息" style="rounded=0;whiteSpace=wrap;html=1;" parent="1" vertex="1">
          <mxGeometry x="190" y="355" width="120" height="60" as="geometry" />
        </mxCell>
        <mxCell id="FBJIPTHBruTFaR7SxBJX-44" style="edgeStyle=orthogonalEdgeStyle;rounded=0;orthogonalLoop=1;jettySize=auto;html=1;" parent="1" source="FBJIPTHBruTFaR7SxBJX-38" target="FBJIPTHBruTFaR7SxBJX-35" edge="1">
          <mxGeometry relative="1" as="geometry" />
        </mxCell>
        <mxCell id="FBJIPTHBruTFaR7SxBJX-38" value="退出登录" style="rounded=0;whiteSpace=wrap;html=1;" parent="1" vertex="1">
          <mxGeometry x="190" y="450" width="120" height="60" as="geometry" />
        </mxCell>
        <mxCell id="FBJIPTHBruTFaR7SxBJX-41" value="根据用的id作为Key，Value是绑定的客户端和MQ的Routing-Key" style="text;html=1;strokeColor=none;fillColor=none;align=center;verticalAlign=middle;whiteSpace=wrap;rounded=0;" parent="1" vertex="1">
          <mxGeometry x="380" y="250" width="310" height="30" as="geometry" />
        </mxCell>
        <mxCell id="FBJIPTHBruTFaR7SxBJX-43" value="根据发送用的id，在redis中查找对应的服务和Routing-Key" style="text;html=1;strokeColor=none;fillColor=none;align=center;verticalAlign=middle;whiteSpace=wrap;rounded=0;" parent="1" vertex="1">
          <mxGeometry x="380" y="334" width="270" height="36" as="geometry" />
        </mxCell>
        <mxCell id="FBJIPTHBruTFaR7SxBJX-45" value="删除redis中的信息" style="text;html=1;strokeColor=none;fillColor=none;align=center;verticalAlign=middle;whiteSpace=wrap;rounded=0;" parent="1" vertex="1">
          <mxGeometry x="390" y="430" width="270" height="36" as="geometry" />
        </mxCell>
        <mxCell id="FBJIPTHBruTFaR7SxBJX-50" style="edgeStyle=orthogonalEdgeStyle;rounded=0;orthogonalLoop=1;jettySize=auto;html=1;" parent="1" source="FBJIPTHBruTFaR7SxBJX-46" target="FBJIPTHBruTFaR7SxBJX-47" edge="1">
          <mxGeometry relative="1" as="geometry" />
        </mxCell>
        <mxCell id="FBJIPTHBruTFaR7SxBJX-51" style="edgeStyle=orthogonalEdgeStyle;rounded=0;orthogonalLoop=1;jettySize=auto;html=1;entryX=0;entryY=0.5;entryDx=0;entryDy=0;" parent="1" source="FBJIPTHBruTFaR7SxBJX-46" target="FBJIPTHBruTFaR7SxBJX-48" edge="1">
          <mxGeometry relative="1" as="geometry" />
        </mxCell>
        <mxCell id="FBJIPTHBruTFaR7SxBJX-52" style="edgeStyle=orthogonalEdgeStyle;rounded=0;orthogonalLoop=1;jettySize=auto;html=1;entryX=0;entryY=0.5;entryDx=0;entryDy=0;" parent="1" source="FBJIPTHBruTFaR7SxBJX-46" target="FBJIPTHBruTFaR7SxBJX-49" edge="1">
          <mxGeometry relative="1" as="geometry" />
        </mxCell>
        <mxCell id="FBJIPTHBruTFaR7SxBJX-46" value="Exchange" style="rounded=0;whiteSpace=wrap;html=1;" parent="1" vertex="1">
          <mxGeometry x="294" y="640" width="120" height="60" as="geometry" />
        </mxCell>
        <mxCell id="FBJIPTHBruTFaR7SxBJX-47" value="Client-A" style="rounded=1;whiteSpace=wrap;html=1;" parent="1" vertex="1">
          <mxGeometry x="750" y="630" width="109" height="30" as="geometry" />
        </mxCell>
        <mxCell id="FBJIPTHBruTFaR7SxBJX-48" value="&lt;span&gt;Client-B&lt;/span&gt;" style="rounded=1;whiteSpace=wrap;html=1;" parent="1" vertex="1">
          <mxGeometry x="635" y="670" width="109" height="30" as="geometry" />
        </mxCell>
        <mxCell id="FBJIPTHBruTFaR7SxBJX-49" value="&lt;span&gt;Client-C&lt;/span&gt;" style="rounded=1;whiteSpace=wrap;html=1;" parent="1" vertex="1">
          <mxGeometry x="526" y="710" width="109" height="30" as="geometry" />
        </mxCell>
        <mxCell id="FBJIPTHBruTFaR7SxBJX-53" value="Routing-Key" style="text;html=1;strokeColor=none;fillColor=none;align=center;verticalAlign=middle;whiteSpace=wrap;rounded=0;" parent="1" vertex="1">
          <mxGeometry x="460" y="630" width="100" height="30" as="geometry" />
        </mxCell>
        <mxCell id="FBJIPTHBruTFaR7SxBJX-54" value="只保存用户连接的java服务，和mq对应的routing-key" style="text;html=1;strokeColor=none;fillColor=none;align=center;verticalAlign=middle;whiteSpace=wrap;rounded=0;" parent="1" vertex="1">
          <mxGeometry x="980" y="300" width="80" height="130" as="geometry" />
        </mxCell>
        <mxCell id="FBJIPTHBruTFaR7SxBJX-55" value="可以是集群" style="text;html=1;strokeColor=none;fillColor=none;align=center;verticalAlign=middle;whiteSpace=wrap;rounded=0;" parent="1" vertex="1">
          <mxGeometry x="790" y="230" width="110" height="30" as="geometry" />
        </mxCell>
        <mxCell id="FBJIPTHBruTFaR7SxBJX-56" value="可以是集群" style="text;html=1;strokeColor=none;fillColor=none;align=center;verticalAlign=middle;whiteSpace=wrap;rounded=0;" parent="1" vertex="1">
          <mxGeometry x="110" y="660" width="110" height="30" as="geometry" />
        </mxCell>
        <mxCell id="FBJIPTHBruTFaR7SxBJX-57" value="可以是集群" style="text;html=1;strokeColor=none;fillColor=none;align=center;verticalAlign=middle;whiteSpace=wrap;rounded=0;" parent="1" vertex="1">
          <mxGeometry x="150" y="220" width="110" height="30" as="geometry" />
        </mxCell>
      </root>
    </mxGraphModel>
  </diagram>
</mxfile>
